<svg width="24" height="24" viewBox="0 0 24 24" fill="none" xmlns="http://www.w3.org/2000/svg">
<rect width="24" height="24" rx="4" fill="#F6F6FC"/>
<path fill-rule="evenodd" clip-rule="evenodd" d="M16 14.031C17.1046 14.031 18 13.1356 18 12.031C18 10.9264 17.1046 10.031 16 10.031C14.8954 10.031 14 10.9264 14 12.031C14 13.1356 14.8954 14.031 16 14.031ZM16 13.031C16.5523 13.031 17 12.5833 17 12.031C17 11.4787 16.5523 11.031 16 11.031C15.4477 11.031 15 11.4787 15 12.031C15 12.5833 15.4477 13.031 16 13.031Z" fill="#8C6AF5"/>
<path d="M10.5 12.5C10.7761 12.5 11 12.2761 11 12C11 11.7239 10.7761 11.5 10.5 11.5H7.53125C7.25511 11.5 7.03125 11.7239 7.03125 12C7.03125 12.2761 7.25511 12.5 7.53125 12.5H10.5Z" fill="#8C6AF5"/>
<path fill-rule="evenodd" clip-rule="evenodd" d="M8 8C5.79086 8 4 9.79086 4 12C4 14.2091 5.79086 16 8 16H16C18.2091 16 20 14.2091 20 12C20 9.79086 18.2091 8 16 8H8ZM16 9.2H8C6.4536 9.2 5.2 10.4536 5.2 12C5.2 13.5464 6.4536 14.8 8 14.8H16C17.5464 14.8 18.8 13.5464 18.8 12C18.8 10.4536 17.5464 9.2 16 9.2Z" fill="#8C6AF5"/>
</svg>
