<svg width="150" height="150" viewBox="0 0 150 150" fill="none" xmlns="http://www.w3.org/2000/svg">
<rect x="2.53125" y="2.53125" width="144.938" height="144.938" rx="72.4688" fill="#EFEFF0"/>
<rect x="2.53125" y="2.53125" width="144.938" height="144.938" rx="72.4688" stroke="#AFB1B6" stroke-width="5.0625"/>
<mask id="mask0_608_5051" style="mask-type:luminance" maskUnits="userSpaceOnUse" x="50" y="50" width="52" height="52">
<path fill-rule="evenodd" clip-rule="evenodd" d="M50.626 50.625H101.149V101.123H50.626V50.625Z" fill="white"/>
</mask>
<g mask="url(#mask0_608_5051)">
<path fill-rule="evenodd" clip-rule="evenodd" d="M64.9275 54.4219C58.5462 54.4219 54.4228 58.7933 54.4228 65.5568V86.1916C54.4228 92.9576 58.5462 97.3266 64.9275 97.3266H86.8228C93.2193 97.3266 97.3528 92.9576 97.3528 86.1916V65.5568C97.3528 58.7933 93.2193 54.4219 86.8228 54.4219H64.9275ZM86.8229 101.123H64.9275C56.3719 101.123 50.626 95.1218 50.626 86.1916V65.5568C50.626 56.6266 56.3719 50.625 64.9275 50.625H86.8229C95.3911 50.625 101.15 56.6266 101.15 65.5568V86.1916C101.15 95.1218 95.3911 101.123 86.8229 101.123Z" fill="#AFB1B6"/>
</g>
<path fill-rule="evenodd" clip-rule="evenodd" d="M58.9309 89.0492C58.4601 89.0492 57.9918 88.8771 57.6248 88.5277C56.8629 87.8089 56.8325 86.604 57.5539 85.8471L61.4217 81.7642C63.4695 79.5899 66.9246 79.4836 69.1091 81.5339L71.534 83.9943C72.2099 84.6777 73.3084 84.6904 73.9868 84.0221C74.2425 83.7209 79.7555 77.0257 79.7555 77.0257C80.8035 75.7551 82.2817 74.9704 83.9245 74.8084C85.5698 74.6641 87.167 75.1425 88.4402 76.1879C88.5491 76.2765 88.6478 76.3626 94.2064 82.0705C94.938 82.8198 94.9253 84.0221 94.1735 84.7536C93.4243 85.4902 92.2194 85.4675 91.4879 84.7182C91.4879 84.7182 86.3013 79.395 85.9318 79.0356C85.5394 78.7141 84.9091 78.5268 84.289 78.5875C83.6587 78.6508 83.0917 78.952 82.6892 79.4406C76.8066 86.5761 76.7357 86.6445 76.6395 86.7381C74.4677 88.8695 70.962 88.834 68.8281 86.6571C68.8281 86.6571 66.474 84.2676 66.4335 84.2196C65.8488 83.6779 64.806 83.7133 64.1807 84.374L60.3079 88.4569C59.9333 88.8517 59.4321 89.0492 58.9309 89.0492Z" fill="#AFB1B6"/>
<path fill-rule="evenodd" clip-rule="evenodd" d="M67.224 66.1388C65.8242 66.1388 64.6851 67.2779 64.6851 68.6802C64.6851 70.0825 65.8242 71.2241 67.2265 71.2241C68.6288 71.2241 69.7704 70.0825 69.7704 68.6802C69.7704 67.2804 68.6288 66.1413 67.224 66.1388ZM67.2264 75.0208C63.7308 75.0208 60.8882 72.1757 60.8882 68.68C60.8882 65.1844 63.7308 62.3418 67.2264 62.3418C70.7246 62.3443 73.5672 65.1895 73.5672 68.68C73.5672 72.1757 70.7221 75.0208 67.2264 75.0208Z" fill="#AFB1B6"/>
</svg>
