<svg width="24" height="24" viewBox="0 0 24 24" fill="none" xmlns="http://www.w3.org/2000/svg">
<g clip-path="url(#clip0_1156_31328)">
<path fill-rule="evenodd" clip-rule="evenodd" d="M13.9648 11.9999C13.9648 13.1045 13.0694 13.9999 11.9648 13.9999C11.0329 13.9999 10.2499 13.3625 10.0279 12.4999H3.96484V11.4999H10.0279C10.2499 10.6373 11.0329 9.99994 11.9648 9.99994C13.0694 9.99994 13.9648 10.8954 13.9648 11.9999Z" fill="#8C6AF5"/>
<path fill-rule="evenodd" clip-rule="evenodd" d="M8.78484 8.81999L11.9648 5.63999L18.3248 12L11.9648 18.36L8.78484 15.18L7.72484 16.24L11.2648 19.78C11.6548 20.17 12.2848 20.17 12.6748 19.78L19.7448 12.71C20.1348 12.32 20.1348 11.69 19.7448 11.3L12.6748 4.21999C12.2848 3.82999 11.6548 3.82999 11.2648 4.21999L7.72484 7.75999L8.78484 8.81999Z" fill="#8C6AF5"/>
</g>
<defs>
<clipPath id="clip0_1156_31328">
<rect width="16.07" height="16.14" fill="white" transform="translate(3.96484 3.93005)"/>
</clipPath>
</defs>
</svg>
