<svg width="24" height="24" viewBox="0 0 24 24" fill="none" xmlns="http://www.w3.org/2000/svg">
<rect width="24" height="24" rx="4" fill="#F6F6FC"/>
<path fill-rule="evenodd" clip-rule="evenodd" d="M5 8.72656C5 8.31235 5.33579 7.97656 5.75 7.97656H13.25C13.6642 7.97656 14 8.31235 14 8.72656C14 9.14078 13.6642 9.47656 13.25 9.47656H5.75C5.33579 9.47656 5 9.14078 5 8.72656ZM5 12.2266C5 11.8123 5.33579 11.4766 5.75 11.4766H11.25C11.6642 11.4766 12 11.8123 12 12.2266C12 12.6408 11.6642 12.9766 11.25 12.9766H5.75C5.33579 12.9766 5 12.6408 5 12.2266ZM5.75 14.9766C5.33579 14.9766 5 15.3123 5 15.7266C5 16.1408 5.33579 16.4766 5.75 16.4766H9.25C9.66421 16.4766 10 16.1408 10 15.7266C10 15.3123 9.66421 14.9766 9.25 14.9766H5.75Z" fill="#8C6AF5"/>
<path d="M19.0339 8.12988C18.9499 8.05815 18.8237 8.06809 18.752 8.15209L17.7129 9.36877C17.6411 9.45276 17.6511 9.579 17.7351 9.65074L18.9518 10.6898C19.0357 10.7615 19.162 10.7516 19.2337 10.6676L20.2728 9.45093C20.3445 9.36694 20.3346 9.2407 20.2506 9.16896L19.0339 8.12988Z" fill="#8C6AF5"/>
<path d="M17.248 10.2211C17.164 10.1493 17.0378 10.1593 16.966 10.2433L12.8869 15.0196C12.8607 15.0503 12.8444 15.0882 12.8401 15.1284L12.6907 16.5337C12.6759 16.6732 12.8056 16.7843 12.9412 16.7481L14.3055 16.3838C14.3447 16.3733 14.3798 16.3512 14.4061 16.3204L18.485 11.5404C18.5567 11.4564 18.5467 11.3302 18.4628 11.2585L17.248 10.2211Z" fill="#8C6AF5"/>
</svg>
