<svg width="24" height="24" viewBox="0 0 24 24" fill="none" xmlns="http://www.w3.org/2000/svg">
<rect width="24" height="24" rx="4" fill="#F6F6FC"/>
<path fill-rule="evenodd" clip-rule="evenodd" d="M13.4996 6.51294C13.4996 5.68451 12.828 5.01294 11.9996 5.01294C11.1712 5.01294 10.4996 5.68451 10.4996 6.51294C10.4996 7.34137 11.1712 8.01294 11.9996 8.01294C12.828 8.01294 13.4996 7.34137 13.4996 6.51294ZM5.99707 8.01562V11.0066L18.0027 11.0066L18.0027 8.01562H16.7027L16.7027 9.70664L7.29707 9.70664L7.29707 8.01562H5.99707ZM11.9996 15.9504C12.828 15.9504 13.4996 16.622 13.4996 17.4504C13.4996 18.2789 12.828 18.9504 11.9996 18.9504C11.1712 18.9504 10.4996 18.2789 10.4996 17.4504C10.4996 16.622 11.1712 15.9504 11.9996 15.9504ZM18.0246 16V13.0158L6.019 13.0158L6.019 16H7.319L7.319 14.3158L16.7246 14.3158L16.7246 16H18.0246Z" fill="#8C6AF5"/>
</svg>
