<svg width="24" height="24" viewBox="0 0 24 24" fill="none" xmlns="http://www.w3.org/2000/svg">
<rect width="24" height="24" rx="4" fill="#F6F6FC"/>
<path fill-rule="evenodd" clip-rule="evenodd" d="M8 10C9.10457 10 10 9.10457 10 8C10 6.89543 9.10457 6 8 6C6.89543 6 6 6.89543 6 8C6 9.10457 6.89543 10 8 10ZM8 11C9.65685 11 11 9.65685 11 8C11 6.34315 9.65685 5 8 5C6.34315 5 5 6.34315 5 8C5 9.65685 6.34315 11 8 11ZM8 18C9.10457 18 10 17.1046 10 16C10 14.8954 9.10457 14 8 14C6.89543 14 6 14.8954 6 16C6 17.1046 6.89543 18 8 18ZM8 19C9.65685 19 11 17.6569 11 16C11 14.3431 9.65685 13 8 13C6.34315 13 5 14.3431 5 16C5 17.6569 6.34315 19 8 19ZM18 8C18 8.74028 17.5978 9.38663 17 9.73244V6.26756C17.5978 6.61337 18 7.25972 18 8ZM16 10C16.1726 10 16.3402 9.97812 16.5 9.93699V6.06301C16.3402 6.02188 16.1726 6 16 6C15.8274 6 15.6598 6.02188 15.5 6.06301V9.93699C15.6598 9.97812 15.8274 10 16 10ZM15 6.26756C14.4022 6.61337 14 7.25972 14 8C14 8.74028 14.4022 9.38663 15 9.73244V6.26756ZM19 8C19 9.65685 17.6569 11 16 11C14.3431 11 13 9.65685 13 8C13 6.34315 14.3431 5 16 5C17.6569 5 19 6.34315 19 8ZM16 18C17.1046 18 18 17.1046 18 16C18 14.8954 17.1046 14 16 14C14.8954 14 14 14.8954 14 16C14 17.1046 14.8954 18 16 18ZM16 19C17.6569 19 19 17.6569 19 16C19 14.3431 17.6569 13 16 13C14.3431 13 13 14.3431 13 16C13 17.6569 14.3431 19 16 19ZM8 7.78125C8.27614 7.78125 8.5 7.55739 8.5 7.28125C8.5 7.00511 8.27614 6.78125 8 6.78125C7.72386 6.78125 7.5 7.00511 7.5 7.28125C7.5 7.55739 7.72386 7.78125 8 7.78125ZM8.5 8.71875C8.5 8.99489 8.27614 9.21875 8 9.21875C7.72386 9.21875 7.5 8.99489 7.5 8.71875C7.5 8.44261 7.72386 8.21875 8 8.21875C8.27614 8.21875 8.5 8.44261 8.5 8.71875ZM9 16.5V15.5H7V16.5H9Z" fill="#8C6AF5"/>
</svg>
