<svg width="28" height="28" viewBox="0 0 28 28" fill="none" xmlns="http://www.w3.org/2000/svg">
  <path
    d="M21.0003 1.87585C23.1119 3.09505 24.8684 4.84458 26.0961 6.95127C27.3237 9.05795 27.9798 11.4487 27.9995 13.8869C28.0192 16.3251 27.4018 18.7262 26.2084 20.8524C25.0149 22.9787 23.2868 24.7563 21.1952 26.0095C19.1036 27.2626 16.7209 27.9478 14.2831 27.9971C11.8453 28.0465 9.43689 27.4583 7.29627 26.2908C5.15565 25.1233 3.35706 23.417 2.07856 21.3408C0.800057 19.2646 0.0859741 16.8904 0.00700025 14.4534L0 13.9998L0.00700025 13.5462C0.0854055 11.1284 0.788977 8.77219 2.04912 6.70724C3.30926 4.64228 5.08298 2.93908 7.19734 1.76368C9.3117 0.588287 11.6945 -0.0191951 14.1136 0.000462344C16.5326 0.0201198 18.9053 0.666246 21.0003 1.87585ZM19.19 10.21C18.949 9.969 18.6282 9.8242 18.288 9.8028C17.9477 9.78141 17.6114 9.8849 17.342 10.0938L17.2104 10.21L12.6002 14.8188L10.7899 13.01L10.6583 12.8938C10.3889 12.685 10.0526 12.5817 9.71249 12.6031C9.37233 12.6246 9.05168 12.7694 8.81068 13.0104C8.56967 13.2514 8.42486 13.5721 8.4034 13.9122C8.38194 14.2524 8.4853 14.5887 8.69411 14.858L8.81031 14.9896L11.6103 17.7896L11.7419 17.9058C11.9875 18.0963 12.2894 18.1997 12.6002 18.1997C12.9109 18.1997 13.2128 18.0963 13.4584 17.9058L13.59 17.7896L19.19 12.1896L19.3062 12.058C19.5152 11.7887 19.6187 11.4523 19.5973 11.1121C19.5759 10.7719 19.4311 10.4511 19.19 10.21Z"
    fill="#4CA172" />
</svg>