<svg width="28" height="28" viewBox="0 0 28 28" fill="none" xmlns="http://www.w3.org/2000/svg">
<path d="M21.0003 1.87587C23.1119 3.09508 24.8684 4.84464 26.0961 6.95135C27.3237 9.05806 27.9798 11.4489 27.9995 13.8871C28.0192 16.3253 27.4018 18.7264 26.2084 20.8527C25.0149 22.9789 23.2868 24.7567 21.1952 26.0098C19.1036 27.263 16.7209 27.9481 14.2831 27.9975C11.8453 28.0468 9.43689 27.4586 7.29627 26.2911C5.15565 25.1236 3.35706 23.4173 2.07856 21.341C0.800057 19.2648 0.0859741 16.8907 0.00700025 14.4536L0 14L0.00700025 13.5464C0.0854055 11.1286 0.788977 8.7723 2.04912 6.70732C3.30926 4.64234 5.08298 2.93912 7.19734 1.76371C9.3117 0.588295 11.6945 -0.0191953 14.1136 0.00046235C16.5326 0.02012 18.9053 0.666254 21.0003 1.87587ZM11.9155 9.99597C11.6222 9.82136 11.2752 9.75993 10.9397 9.82325C10.6043 9.88657 10.3035 10.0703 10.0941 10.3398C9.88456 10.6093 9.78075 10.9461 9.80216 11.2868C9.82358 11.6275 9.96873 11.9486 10.2103 12.1898L12.0191 14L10.2103 15.8102L10.0941 15.9418C9.87654 16.2232 9.77423 16.5769 9.80796 16.931C9.84169 17.2851 10.0089 17.6131 10.2757 17.8483C10.5425 18.0836 10.8889 18.2084 11.2444 18.1976C11.5999 18.1867 11.938 18.041 12.1899 17.7899L14.0002 15.981L15.8104 17.7899L15.942 17.9061C16.2234 18.1236 16.577 18.226 16.9311 18.1922C17.2852 18.1585 17.6132 17.9912 17.8485 17.7245C18.0837 17.4577 18.2086 17.1113 18.1977 16.7558C18.1869 16.4003 18.0411 16.0622 17.79 15.8102L15.9812 14L17.79 12.1898L17.9062 12.0582C18.1238 11.7768 18.2261 11.4231 18.1924 11.069C18.1587 10.715 17.9914 10.387 17.7246 10.1517C17.4578 9.91647 17.1115 9.79159 16.7559 9.80245C16.4004 9.81331 16.0623 9.95908 15.8104 10.2102L14.0002 12.019L12.1899 10.2102L12.0583 10.094L11.9155 9.99597Z" fill="#D84836"/>
</svg>
